<mxfile host="app.diagrams.net" agent="Mozilla/5.0 (Windows NT 10.0; Win64; x64) AppleWebKit/537.36 (KHTML, like Gecko) Chrome/130.0.0.0 Safari/537.36" version="24.8.2">
  <diagram name="Page-1" id="rwyt8O6BHOvwZtNAPDtA">
    <mxGraphModel dx="1825" dy="1890" grid="0" gridSize="10" guides="1" tooltips="1" connect="1" arrows="1" fold="1" page="0" pageScale="1" pageWidth="850" pageHeight="1100" math="0" shadow="0">
      <root>
        <mxCell id="0" />
        <mxCell id="1" parent="0" />
        <mxCell id="pEVB9ASljIQrwYnrfiqq-56" style="edgeStyle=orthogonalEdgeStyle;rounded=0;orthogonalLoop=1;jettySize=auto;html=1;exitX=0;exitY=0.5;exitDx=0;exitDy=0;entryX=0.75;entryY=1;entryDx=0;entryDy=0;" edge="1" parent="1" source="pEVB9ASljIQrwYnrfiqq-57" target="pEVB9ASljIQrwYnrfiqq-13">
          <mxGeometry relative="1" as="geometry">
            <Array as="points">
              <mxPoint x="1834" y="1857" />
              <mxPoint x="1834" y="1451" />
            </Array>
          </mxGeometry>
        </mxCell>
        <mxCell id="pEVB9ASljIQrwYnrfiqq-13" value="" style="rounded=0;whiteSpace=wrap;html=1;fillColor=none;" vertex="1" parent="1">
          <mxGeometry x="1860" y="1324" width="335" height="162" as="geometry" />
        </mxCell>
        <mxCell id="pEVB9ASljIQrwYnrfiqq-45" value="" style="rounded=0;whiteSpace=wrap;html=1;fillColor=none;" vertex="1" parent="1">
          <mxGeometry x="1892" y="1558.8600000000001" width="335" height="162" as="geometry" />
        </mxCell>
        <mxCell id="pEVB9ASljIQrwYnrfiqq-46" style="rounded=0;orthogonalLoop=1;jettySize=auto;html=1;exitX=0.75;exitY=1;exitDx=0;exitDy=0;entryX=0.5;entryY=0;entryDx=0;entryDy=0;" edge="1" parent="1" source="6n6V5YqHm-eZs2ubv0Nd-21" target="pEVB9ASljIQrwYnrfiqq-45">
          <mxGeometry relative="1" as="geometry" />
        </mxCell>
        <mxCell id="pEVB9ASljIQrwYnrfiqq-10" value="" style="rounded=0;whiteSpace=wrap;html=1;fillColor=none;" vertex="1" parent="1">
          <mxGeometry x="1117" y="773" width="705" height="659" as="geometry" />
        </mxCell>
        <object label="&lt;div style=&quot;color: rgb(255 , 255 , 255) ; white-space: normal&quot;&gt;&lt;span style=&quot;font-size: 14px&quot;&gt;&lt;b&gt;%name%&lt;/b&gt;&lt;/span&gt;&lt;/div&gt;&lt;div style=&quot;color: rgb(255 , 255 , 255) ; white-space: normal ; font-size: 8px&quot;&gt;&lt;font style=&quot;line-height: 9.6px&quot;&gt;&lt;br&gt;&lt;/font&gt;&lt;/div&gt;&lt;div style=&quot;color: rgb(255 , 255 , 255) ; white-space: normal&quot;&gt;%description%&lt;/div&gt;" name="Zápisy" description="[Database]" placeholders="1" id="6n6V5YqHm-eZs2ubv0Nd-1">
          <mxCell style="shape=cylinder;whiteSpace=wrap;html=1;boundedLbl=1;backgroundOutline=1;strokeColor=#2F6FA6;strokeWidth=1;fillColor=#3B8CD2;fontSize=9;fontColor=#000000;align=center;resizable=0;rotatable=0;metaEdit=1;allowArrows=0;" parent="1" vertex="1">
            <mxGeometry x="1937.5" y="1345" width="180" height="120" as="geometry" />
          </mxCell>
        </object>
        <mxCell id="6n6V5YqHm-eZs2ubv0Nd-2" style="rounded=0;orthogonalLoop=1;jettySize=auto;html=1;exitX=0.5;exitY=0;exitDx=0;exitDy=0;entryX=0.5;entryY=1;entryDx=0;entryDy=0;" parent="1" source="6n6V5YqHm-eZs2ubv0Nd-1" target="6n6V5YqHm-eZs2ubv0Nd-4" edge="1">
          <mxGeometry relative="1" as="geometry">
            <mxPoint x="2210" y="1240" as="targetPoint" />
          </mxGeometry>
        </mxCell>
        <mxCell id="6n6V5YqHm-eZs2ubv0Nd-3" value="Čtení dat" style="edgeLabel;html=1;align=center;verticalAlign=middle;resizable=0;points=[];" parent="6n6V5YqHm-eZs2ubv0Nd-2" vertex="1" connectable="0">
          <mxGeometry x="-0.0857" relative="1" as="geometry">
            <mxPoint as="offset" />
          </mxGeometry>
        </mxCell>
        <mxCell id="pEVB9ASljIQrwYnrfiqq-44" value="Čtení dat" style="edgeLabel;html=1;align=center;verticalAlign=middle;resizable=0;points=[];" vertex="1" connectable="0" parent="6n6V5YqHm-eZs2ubv0Nd-2">
          <mxGeometry x="-0.0857" relative="1" as="geometry">
            <mxPoint x="27" y="270" as="offset" />
          </mxGeometry>
        </mxCell>
        <object label="&lt;div&gt;&lt;span style=&quot;font-size: 14px&quot;&gt;&lt;b&gt;%name%&lt;/b&gt;&lt;/span&gt;&lt;/div&gt;" placeholders="1" name="Načítání dat uživatelů" technology="Module" description="" id="6n6V5YqHm-eZs2ubv0Nd-4">
          <mxCell style="rounded=0;whiteSpace=wrap;html=1;fillColor=#85baf0;fontColor=#000000;strokeColor=#6992BD;resizable=0;rotatable=0;metaEdit=1;allowArrows=0;" parent="1" vertex="1">
            <mxGeometry x="1940" y="1032" width="180" height="120" as="geometry" />
          </mxCell>
        </object>
        <mxCell id="pEVB9ASljIQrwYnrfiqq-41" style="edgeStyle=orthogonalEdgeStyle;rounded=0;orthogonalLoop=1;jettySize=auto;html=1;exitX=0.5;exitY=1;exitDx=0;exitDy=0;entryX=0.5;entryY=0;entryDx=0;entryDy=0;" edge="1" parent="1" source="6n6V5YqHm-eZs2ubv0Nd-7" target="pEVB9ASljIQrwYnrfiqq-6">
          <mxGeometry relative="1" as="geometry" />
        </mxCell>
        <object label="&lt;div&gt;&lt;span style=&quot;font-size: 14px&quot;&gt;&lt;b&gt;%name%&lt;/b&gt;&lt;/span&gt;&lt;/div&gt;" placeholders="1" name="Načítání dat předmětů" technology="" description="" id="6n6V5YqHm-eZs2ubv0Nd-7">
          <mxCell style="rounded=0;whiteSpace=wrap;html=1;fillColor=#85baf0;fontColor=#000000;strokeColor=#6992BD;resizable=0;rotatable=0;metaEdit=1;allowArrows=0;" parent="1" vertex="1">
            <mxGeometry x="1304" y="1080" width="180" height="120" as="geometry" />
          </mxCell>
        </object>
        <mxCell id="6n6V5YqHm-eZs2ubv0Nd-8" style="rounded=0;orthogonalLoop=1;jettySize=auto;html=1;entryX=0.5;entryY=1;entryDx=0;entryDy=0;" parent="1" target="6n6V5YqHm-eZs2ubv0Nd-10" edge="1">
          <mxGeometry relative="1" as="geometry">
            <mxPoint x="1370" y="1080" as="sourcePoint" />
            <mxPoint x="1170" y="1000" as="targetPoint" />
          </mxGeometry>
        </mxCell>
        <mxCell id="6n6V5YqHm-eZs2ubv0Nd-9" value="Načítání dat" style="edgeLabel;html=1;align=center;verticalAlign=middle;resizable=0;points=[];" parent="6n6V5YqHm-eZs2ubv0Nd-8" vertex="1" connectable="0">
          <mxGeometry x="0.0561" y="1" relative="1" as="geometry">
            <mxPoint as="offset" />
          </mxGeometry>
        </mxCell>
        <object label="&lt;div&gt;&lt;span style=&quot;font-size: 14px&quot;&gt;&lt;b&gt;%name%&lt;/b&gt;&lt;/span&gt;&lt;/div&gt;" placeholders="1" name="Příprava předmětových dat k zobrazení" technology="Module" description="" id="6n6V5YqHm-eZs2ubv0Nd-10">
          <mxCell style="rounded=0;whiteSpace=wrap;html=1;fillColor=#85baf0;fontColor=#000000;strokeColor=#6992BD;resizable=0;rotatable=0;metaEdit=1;allowArrows=0;" parent="1" vertex="1">
            <mxGeometry x="1170" y="800" width="180" height="120" as="geometry" />
          </mxCell>
        </object>
        <mxCell id="6n6V5YqHm-eZs2ubv0Nd-11" style="rounded=0;orthogonalLoop=1;jettySize=auto;html=1;exitX=0.5;exitY=0;exitDx=0;exitDy=0;entryX=0.5;entryY=1;entryDx=0;entryDy=0;" parent="1" source="6n6V5YqHm-eZs2ubv0Nd-4" target="6n6V5YqHm-eZs2ubv0Nd-13" edge="1">
          <mxGeometry relative="1" as="geometry">
            <mxPoint x="2217" y="1090" as="targetPoint" />
          </mxGeometry>
        </mxCell>
        <mxCell id="6n6V5YqHm-eZs2ubv0Nd-12" value="Načítání dat" style="edgeLabel;html=1;align=center;verticalAlign=middle;resizable=0;points=[];" parent="6n6V5YqHm-eZs2ubv0Nd-11" vertex="1" connectable="0">
          <mxGeometry x="-0.0074" y="1" relative="1" as="geometry">
            <mxPoint as="offset" />
          </mxGeometry>
        </mxCell>
        <mxCell id="6n6V5YqHm-eZs2ubv0Nd-60" value="Získanie informácii o užívateľovi" style="edgeStyle=none;curved=1;rounded=0;orthogonalLoop=1;jettySize=auto;html=1;exitX=0;exitY=0.5;exitDx=0;exitDy=0;entryX=1;entryY=0.5;entryDx=0;entryDy=0;fontSize=12;startSize=8;endSize=8;" parent="1" source="6n6V5YqHm-eZs2ubv0Nd-13" target="6n6V5YqHm-eZs2ubv0Nd-18" edge="1">
          <mxGeometry x="0.0118" y="39" relative="1" as="geometry">
            <Array as="points">
              <mxPoint x="1762" y="860" />
            </Array>
            <mxPoint as="offset" />
          </mxGeometry>
        </mxCell>
        <mxCell id="6n6V5YqHm-eZs2ubv0Nd-61" style="edgeStyle=none;curved=1;rounded=0;orthogonalLoop=1;jettySize=auto;html=1;exitX=0;exitY=0.5;exitDx=0;exitDy=0;entryX=1;entryY=0.5;entryDx=0;entryDy=0;fontSize=12;startSize=8;endSize=8;" parent="1" source="6n6V5YqHm-eZs2ubv0Nd-13" target="6n6V5YqHm-eZs2ubv0Nd-10" edge="1">
          <mxGeometry relative="1" as="geometry">
            <Array as="points">
              <mxPoint x="1792" y="1095" />
            </Array>
          </mxGeometry>
        </mxCell>
        <object label="&lt;div&gt;&lt;span style=&quot;font-size: 14px&quot;&gt;&lt;b&gt;%name%&lt;/b&gt;&lt;/span&gt;&lt;/div&gt;" placeholders="1" name="Příprava uživatelských dat k zobrazení" technology="Module" description="" id="6n6V5YqHm-eZs2ubv0Nd-13">
          <mxCell style="rounded=0;whiteSpace=wrap;html=1;fillColor=#85baf0;fontColor=#000000;strokeColor=#6992BD;resizable=0;rotatable=0;metaEdit=1;allowArrows=0;" parent="1" vertex="1">
            <mxGeometry x="1940" y="770" width="180" height="120" as="geometry" />
          </mxCell>
        </object>
        <mxCell id="6n6V5YqHm-eZs2ubv0Nd-14" style="rounded=0;orthogonalLoop=1;jettySize=auto;html=1;exitX=0.5;exitY=0;exitDx=0;exitDy=0;entryX=0.5;entryY=1;entryDx=0;entryDy=0;" parent="1" source="6n6V5YqHm-eZs2ubv0Nd-7" target="6n6V5YqHm-eZs2ubv0Nd-18" edge="1">
          <mxGeometry relative="1" as="geometry">
            <mxPoint x="1550" y="1020" as="targetPoint" />
          </mxGeometry>
        </mxCell>
        <mxCell id="6n6V5YqHm-eZs2ubv0Nd-15" value="Načítání dat" style="edgeLabel;html=1;align=center;verticalAlign=middle;resizable=0;points=[];" parent="6n6V5YqHm-eZs2ubv0Nd-14" vertex="1" connectable="0">
          <mxGeometry x="0.094" y="-1" relative="1" as="geometry">
            <mxPoint as="offset" />
          </mxGeometry>
        </mxCell>
        <object label="&lt;div&gt;&lt;span style=&quot;font-size: 14px&quot;&gt;&lt;b&gt;%name%&lt;/b&gt;&lt;/span&gt;&lt;/div&gt;" placeholders="1" name="Zapsat studenta na lístek" technology="Module" description="" id="6n6V5YqHm-eZs2ubv0Nd-18">
          <mxCell style="rounded=0;whiteSpace=wrap;html=1;fillColor=#85baf0;fontColor=#000000;strokeColor=#6992BD;resizable=0;rotatable=0;metaEdit=1;allowArrows=0;" parent="1" vertex="1">
            <mxGeometry x="1942" y="895" width="180" height="120" as="geometry" />
          </mxCell>
        </object>
        <mxCell id="pEVB9ASljIQrwYnrfiqq-42" style="edgeStyle=orthogonalEdgeStyle;rounded=0;orthogonalLoop=1;jettySize=auto;html=1;exitX=0.5;exitY=1;exitDx=0;exitDy=0;entryX=0.75;entryY=0;entryDx=0;entryDy=0;" edge="1" parent="1" source="6n6V5YqHm-eZs2ubv0Nd-21" target="pEVB9ASljIQrwYnrfiqq-6">
          <mxGeometry relative="1" as="geometry" />
        </mxCell>
        <object label="&lt;div&gt;&lt;span style=&quot;font-size: 14px&quot;&gt;&lt;b&gt;%name%&lt;/b&gt;&lt;/span&gt;&lt;/div&gt;" placeholders="1" name="Ukládání změn v lístku" technology="Module" description="" id="6n6V5YqHm-eZs2ubv0Nd-21">
          <mxCell style="rounded=0;whiteSpace=wrap;html=1;fillColor=#85baf0;fontColor=#000000;strokeColor=#6992BD;resizable=0;rotatable=0;metaEdit=1;allowArrows=0;" parent="1" vertex="1">
            <mxGeometry x="1590" y="1080" width="180" height="120" as="geometry" />
          </mxCell>
        </object>
        <mxCell id="6n6V5YqHm-eZs2ubv0Nd-22" style="rounded=0;orthogonalLoop=1;jettySize=auto;html=1;exitX=0.5;exitY=1;exitDx=0;exitDy=0;entryX=0.5;entryY=0;entryDx=0;entryDy=0;" parent="1" source="6n6V5YqHm-eZs2ubv0Nd-23" target="6n6V5YqHm-eZs2ubv0Nd-58" edge="1">
          <mxGeometry relative="1" as="geometry" />
        </mxCell>
        <object label="&lt;div&gt;&lt;span style=&quot;font-size: 14px&quot;&gt;&lt;b&gt;%name%&lt;/b&gt;&lt;/span&gt;&lt;/div&gt;" placeholders="1" name="Tvorba emailu" technology="Module" description="" id="6n6V5YqHm-eZs2ubv0Nd-23">
          <mxCell style="rounded=0;whiteSpace=wrap;html=1;fillColor=#85baf0;fontColor=#000000;strokeColor=#6992BD;resizable=0;rotatable=0;metaEdit=1;allowArrows=0;" parent="1" vertex="1">
            <mxGeometry x="2304" y="805" width="180" height="120" as="geometry" />
          </mxCell>
        </object>
        <mxCell id="6n6V5YqHm-eZs2ubv0Nd-24" style="rounded=0;orthogonalLoop=1;jettySize=auto;html=1;exitX=0.5;exitY=0;exitDx=0;exitDy=0;entryX=0.5;entryY=1;entryDx=0;entryDy=0;" parent="1" source="6n6V5YqHm-eZs2ubv0Nd-10" target="6n6V5YqHm-eZs2ubv0Nd-26" edge="1">
          <mxGeometry relative="1" as="geometry">
            <mxPoint x="1160" y="700" as="targetPoint" />
          </mxGeometry>
        </mxCell>
        <mxCell id="6n6V5YqHm-eZs2ubv0Nd-25" value="Načítání dat" style="edgeLabel;html=1;align=center;verticalAlign=middle;resizable=0;points=[];" parent="6n6V5YqHm-eZs2ubv0Nd-24" vertex="1" connectable="0">
          <mxGeometry x="-0.0155" y="-1" relative="1" as="geometry">
            <mxPoint as="offset" />
          </mxGeometry>
        </mxCell>
        <object label="&lt;div&gt;&lt;span style=&quot;font-size: 14px&quot;&gt;&lt;b&gt;%name%&lt;/b&gt;&lt;/span&gt;&lt;/div&gt;" placeholders="1" name="Vykreslování rozvrhu" technology="Module" description="" id="6n6V5YqHm-eZs2ubv0Nd-26">
          <mxCell style="rounded=0;whiteSpace=wrap;html=1;fillColor=#85baf0;fontColor=#000000;strokeColor=#6992BD;resizable=0;rotatable=0;metaEdit=1;allowArrows=0;" parent="1" vertex="1">
            <mxGeometry x="1170" y="490" width="180" height="120" as="geometry" />
          </mxCell>
        </object>
        <mxCell id="6n6V5YqHm-eZs2ubv0Nd-32" style="edgeStyle=none;rounded=0;orthogonalLoop=1;jettySize=auto;html=1;exitX=0.75;exitY=1;exitDx=0;exitDy=0;entryX=0.5;entryY=0;entryDx=0;entryDy=0;" parent="1" source="6n6V5YqHm-eZs2ubv0Nd-51" target="6n6V5YqHm-eZs2ubv0Nd-23" edge="1">
          <mxGeometry relative="1" as="geometry" />
        </mxCell>
        <mxCell id="6n6V5YqHm-eZs2ubv0Nd-33" value="Komunikace se&lt;div&gt;studenty&lt;/div&gt;" style="edgeLabel;html=1;align=center;verticalAlign=middle;resizable=0;points=[];" parent="6n6V5YqHm-eZs2ubv0Nd-32" vertex="1" connectable="0">
          <mxGeometry x="-0.0402" relative="1" as="geometry">
            <mxPoint as="offset" />
          </mxGeometry>
        </mxCell>
        <object label="&lt;div&gt;&lt;span style=&quot;font-size: 14px&quot;&gt;&lt;b&gt;%name%&lt;/b&gt;&lt;/span&gt;&lt;/div&gt;" placeholders="1" name="Navigace" technology="Module" description="" id="6n6V5YqHm-eZs2ubv0Nd-34">
          <mxCell style="rounded=0;whiteSpace=wrap;html=1;fillColor=#85baf0;fontColor=#000000;strokeColor=#6992BD;resizable=0;rotatable=0;metaEdit=1;allowArrows=0;" parent="1" vertex="1">
            <mxGeometry x="1400" y="320" width="180" height="120" as="geometry" />
          </mxCell>
        </object>
        <mxCell id="6n6V5YqHm-eZs2ubv0Nd-35" style="rounded=0;orthogonalLoop=1;jettySize=auto;html=1;exitX=0.75;exitY=0;exitDx=0;exitDy=0;entryX=0.25;entryY=1;entryDx=0;entryDy=0;" parent="1" source="6n6V5YqHm-eZs2ubv0Nd-10" target="6n6V5YqHm-eZs2ubv0Nd-41" edge="1">
          <mxGeometry relative="1" as="geometry">
            <mxPoint x="1450" y="660" as="targetPoint" />
          </mxGeometry>
        </mxCell>
        <mxCell id="6n6V5YqHm-eZs2ubv0Nd-36" value="Načítání dat" style="edgeLabel;html=1;align=center;verticalAlign=middle;resizable=0;points=[];" parent="6n6V5YqHm-eZs2ubv0Nd-35" vertex="1" connectable="0">
          <mxGeometry x="0.0204" y="-1" relative="1" as="geometry">
            <mxPoint as="offset" />
          </mxGeometry>
        </mxCell>
        <mxCell id="6n6V5YqHm-eZs2ubv0Nd-37" style="edgeStyle=none;rounded=0;orthogonalLoop=1;jettySize=auto;html=1;exitX=0.5;exitY=1;exitDx=0;exitDy=0;entryX=0.5;entryY=0;entryDx=0;entryDy=0;" parent="1" source="6n6V5YqHm-eZs2ubv0Nd-41" target="6n6V5YqHm-eZs2ubv0Nd-18" edge="1">
          <mxGeometry relative="1" as="geometry" />
        </mxCell>
        <mxCell id="6n6V5YqHm-eZs2ubv0Nd-38" value="Umožní zapsat&amp;nbsp;&lt;div&gt;studenta&lt;/div&gt;" style="edgeLabel;html=1;align=center;verticalAlign=middle;resizable=0;points=[];" parent="6n6V5YqHm-eZs2ubv0Nd-37" vertex="1" connectable="0">
          <mxGeometry x="0.1472" y="1" relative="1" as="geometry">
            <mxPoint x="-9" y="20" as="offset" />
          </mxGeometry>
        </mxCell>
        <mxCell id="6n6V5YqHm-eZs2ubv0Nd-39" style="rounded=0;orthogonalLoop=1;jettySize=auto;html=1;exitX=1;exitY=0.5;exitDx=0;exitDy=0;entryX=0;entryY=0.5;entryDx=0;entryDy=0;" parent="1" source="6n6V5YqHm-eZs2ubv0Nd-41" target="6n6V5YqHm-eZs2ubv0Nd-51" edge="1">
          <mxGeometry relative="1" as="geometry" />
        </mxCell>
        <mxCell id="6n6V5YqHm-eZs2ubv0Nd-40" value="Navigace na" style="edgeLabel;html=1;align=center;verticalAlign=middle;resizable=0;points=[];" parent="6n6V5YqHm-eZs2ubv0Nd-39" vertex="1" connectable="0">
          <mxGeometry x="-0.1199" y="-1" relative="1" as="geometry">
            <mxPoint as="offset" />
          </mxGeometry>
        </mxCell>
        <object label="&lt;div&gt;&lt;span style=&quot;font-size: 14px&quot;&gt;&lt;b&gt;%name%&lt;/b&gt;&lt;/span&gt;&lt;/div&gt;" placeholders="1" name="Zobrazení lístků" technology="Module" description="" id="6n6V5YqHm-eZs2ubv0Nd-41">
          <mxCell style="rounded=0;whiteSpace=wrap;html=1;fillColor=#85baf0;fontColor=#000000;strokeColor=#6992BD;resizable=0;rotatable=0;metaEdit=1;allowArrows=0;" parent="1" vertex="1">
            <mxGeometry x="1654" y="490" width="180" height="120" as="geometry" />
          </mxCell>
        </object>
        <object label="" placeholders="1" instruction="edit data of the lower shape within the group" id="6n6V5YqHm-eZs2ubv0Nd-42">
          <mxCell style="group;resizable=0;rotatable=0;allowArrows=0;" parent="1" vertex="1" connectable="0">
            <mxGeometry x="1770" y="30" width="160" height="170" as="geometry" />
          </mxCell>
        </object>
        <object label="&lt;div style=&quot;color: rgb(255 , 255 , 255) ; white-space: normal&quot;&gt;&lt;span style=&quot;font-size: 14px&quot;&gt;&lt;b&gt;%name%&lt;/b&gt;&lt;/span&gt;&lt;/div&gt;&lt;div style=&quot;color: rgb(255 , 255 , 255) ; white-space: normal&quot;&gt;&lt;font style=&quot;font-size: 8px&quot;&gt;[Person]&lt;/font&gt;&lt;/div&gt;&lt;div style=&quot;color: rgb(255 , 255 , 255) ; white-space: normal ; font-size: 8px&quot;&gt;&lt;span style=&quot;font-size: x-small&quot;&gt;&lt;br&gt;&lt;/span&gt;&lt;/div&gt;&lt;div style=&quot;color: rgb(255 , 255 , 255) ; white-space: normal&quot;&gt;&lt;font size=&quot;1&quot;&gt;%description%&lt;/font&gt;&lt;/div&gt;" name="Student" description="" placeholders="1" id="6n6V5YqHm-eZs2ubv0Nd-43">
          <mxCell style="rounded=1;whiteSpace=wrap;html=1;strokeColor=#00315C;fillColor=#004179;fontColor=#000000;arcSize=31;metaEdit=1;allowArrows=0;" parent="6n6V5YqHm-eZs2ubv0Nd-42" vertex="1">
            <mxGeometry y="70" width="160" height="100" as="geometry" />
          </mxCell>
        </object>
        <mxCell id="6n6V5YqHm-eZs2ubv0Nd-44" value="" style="ellipse;whiteSpace=wrap;html=1;aspect=fixed;strokeColor=#00315C;fillColor=#004179;fontColor=#000000;allowArrows=0;" parent="6n6V5YqHm-eZs2ubv0Nd-42" vertex="1">
          <mxGeometry x="40" width="80" height="80" as="geometry" />
        </mxCell>
        <mxCell id="6n6V5YqHm-eZs2ubv0Nd-45" style="rounded=0;orthogonalLoop=1;jettySize=auto;html=1;exitX=0;exitY=0.5;exitDx=0;exitDy=0;entryX=0.75;entryY=0;entryDx=0;entryDy=0;" parent="1" source="6n6V5YqHm-eZs2ubv0Nd-43" target="pEVB9ASljIQrwYnrfiqq-1" edge="1">
          <mxGeometry relative="1" as="geometry" />
        </mxCell>
        <object label="&lt;div style=&quot;color: rgb(255 , 255 , 255) ; white-space: normal&quot;&gt;&lt;span style=&quot;font-size: 14px&quot;&gt;&lt;b&gt;%name%&lt;/b&gt;&lt;/span&gt;&lt;/div&gt;&lt;div style=&quot;color: rgb(255 , 255 , 255) ; white-space: normal ; font-size: 8px&quot;&gt;&lt;font style=&quot;line-height: 9.6px&quot;&gt;&lt;br&gt;&lt;/font&gt;&lt;/div&gt;&lt;div style=&quot;color: rgb(255 , 255 , 255) ; white-space: normal&quot;&gt;%description%&lt;/div&gt;" name="Předměty a &#xa;lístky" description="[Database]" placeholders="1" id="6n6V5YqHm-eZs2ubv0Nd-46">
          <mxCell style="shape=cylinder;whiteSpace=wrap;html=1;boundedLbl=1;backgroundOutline=1;strokeColor=#2F6FA6;strokeWidth=1;fillColor=#3B8CD2;fontSize=9;fontColor=#000000;align=center;resizable=0;rotatable=0;metaEdit=1;allowArrows=0;" parent="1" vertex="1">
            <mxGeometry x="1397" y="1477" width="180" height="120" as="geometry" />
          </mxCell>
        </object>
        <mxCell id="6n6V5YqHm-eZs2ubv0Nd-47" style="rounded=0;orthogonalLoop=1;jettySize=auto;html=1;exitX=0.5;exitY=0;exitDx=0;exitDy=0;" parent="1" source="6n6V5YqHm-eZs2ubv0Nd-13" target="6n6V5YqHm-eZs2ubv0Nd-51" edge="1">
          <mxGeometry relative="1" as="geometry">
            <mxPoint x="2030" y="610" as="targetPoint" />
          </mxGeometry>
        </mxCell>
        <mxCell id="6n6V5YqHm-eZs2ubv0Nd-48" value="Načítání dat" style="edgeLabel;html=1;align=center;verticalAlign=middle;resizable=0;points=[];" parent="6n6V5YqHm-eZs2ubv0Nd-47" vertex="1" connectable="0">
          <mxGeometry x="-0.0452" y="1" relative="1" as="geometry">
            <mxPoint as="offset" />
          </mxGeometry>
        </mxCell>
        <mxCell id="6n6V5YqHm-eZs2ubv0Nd-66" value="Úpravy lístku učiteľom" style="edgeStyle=none;curved=1;rounded=0;orthogonalLoop=1;jettySize=auto;html=1;exitX=0;exitY=1;exitDx=0;exitDy=0;entryX=0.5;entryY=0;entryDx=0;entryDy=0;fontSize=12;startSize=8;endSize=8;" parent="1" source="6n6V5YqHm-eZs2ubv0Nd-51" target="6n6V5YqHm-eZs2ubv0Nd-21" edge="1">
          <mxGeometry x="0.0731" y="2" relative="1" as="geometry">
            <mxPoint as="offset" />
          </mxGeometry>
        </mxCell>
        <object label="&lt;div&gt;&lt;span style=&quot;font-size: 14px&quot;&gt;&lt;b&gt;%name%&lt;/b&gt;&lt;/span&gt;&lt;/div&gt;" placeholders="1" name="Detail o lístku" technology="Module" description="" id="6n6V5YqHm-eZs2ubv0Nd-51">
          <mxCell style="rounded=0;whiteSpace=wrap;html=1;fillColor=#85baf0;fontColor=#000000;strokeColor=#6992BD;resizable=0;rotatable=0;metaEdit=1;allowArrows=0;" parent="1" vertex="1">
            <mxGeometry x="1940" y="490" width="180" height="120" as="geometry" />
          </mxCell>
        </object>
        <mxCell id="6n6V5YqHm-eZs2ubv0Nd-52" value="Mail server" style="ellipse;shape=cloud;whiteSpace=wrap;html=1;" parent="1" vertex="1">
          <mxGeometry x="2301" y="1297" width="180" height="150" as="geometry" />
        </mxCell>
        <mxCell id="6n6V5YqHm-eZs2ubv0Nd-53" value="Presentation Layer" style="text;html=1;align=center;verticalAlign=middle;resizable=0;points=[];autosize=1;strokeColor=none;fillColor=none;fontSize=30;" parent="1" vertex="1">
          <mxGeometry x="820" y="430" width="280" height="50" as="geometry" />
        </mxCell>
        <mxCell id="6n6V5YqHm-eZs2ubv0Nd-54" value="Bussiness Layer" style="text;html=1;align=center;verticalAlign=middle;resizable=0;points=[];autosize=1;strokeColor=none;fillColor=none;fontSize=30;" parent="1" vertex="1">
          <mxGeometry x="827" y="835" width="240" height="50" as="geometry" />
        </mxCell>
        <mxCell id="6n6V5YqHm-eZs2ubv0Nd-55" value="Persistance Layer" style="text;html=1;align=center;verticalAlign=middle;resizable=0;points=[];autosize=1;strokeColor=none;fillColor=none;fontSize=30;" parent="1" vertex="1">
          <mxGeometry x="820" y="1115" width="260" height="50" as="geometry" />
        </mxCell>
        <mxCell id="6n6V5YqHm-eZs2ubv0Nd-56" value="Data Layer&amp;nbsp;" style="text;html=1;align=center;verticalAlign=middle;resizable=0;points=[];autosize=1;strokeColor=none;fillColor=none;fontSize=30;" parent="1" vertex="1">
          <mxGeometry x="820" y="1330" width="180" height="50" as="geometry" />
        </mxCell>
        <mxCell id="6n6V5YqHm-eZs2ubv0Nd-57" style="rounded=0;orthogonalLoop=1;jettySize=auto;html=1;exitX=0.5;exitY=1;exitDx=0;exitDy=0;entryX=0.521;entryY=0.117;entryDx=0;entryDy=0;entryPerimeter=0;" parent="1" source="6n6V5YqHm-eZs2ubv0Nd-58" target="6n6V5YqHm-eZs2ubv0Nd-52" edge="1">
          <mxGeometry relative="1" as="geometry">
            <mxPoint x="2040" y="1270" as="targetPoint" />
          </mxGeometry>
        </mxCell>
        <object label="&lt;div&gt;&lt;span style=&quot;font-size: 14px&quot;&gt;&lt;b&gt;%name%&lt;/b&gt;&lt;/span&gt;&lt;/div&gt;" placeholders="1" name="Odesílání emailu" technology="Module" description="" id="6n6V5YqHm-eZs2ubv0Nd-58">
          <mxCell style="rounded=0;whiteSpace=wrap;html=1;fillColor=#85baf0;fontColor=#000000;strokeColor=#6992BD;resizable=0;rotatable=0;metaEdit=1;allowArrows=0;" parent="1" vertex="1">
            <mxGeometry x="2304" y="1080" width="180" height="120" as="geometry" />
          </mxCell>
        </object>
        <mxCell id="pEVB9ASljIQrwYnrfiqq-27" style="rounded=0;orthogonalLoop=1;jettySize=auto;html=1;exitX=0.5;exitY=1;exitDx=0;exitDy=0;" edge="1" parent="1" source="pEVB9ASljIQrwYnrfiqq-1" target="pEVB9ASljIQrwYnrfiqq-2">
          <mxGeometry relative="1" as="geometry" />
        </mxCell>
        <mxCell id="pEVB9ASljIQrwYnrfiqq-1" value="" style="rounded=0;whiteSpace=wrap;html=1;fillColor=none;" vertex="1" parent="1">
          <mxGeometry x="1329" y="285" width="325" height="168" as="geometry" />
        </mxCell>
        <mxCell id="pEVB9ASljIQrwYnrfiqq-2" value="" style="rounded=0;whiteSpace=wrap;html=1;fillColor=none;" vertex="1" parent="1">
          <mxGeometry x="1146" y="480" width="1016" height="168" as="geometry" />
        </mxCell>
        <mxCell id="pEVB9ASljIQrwYnrfiqq-4" value="" style="rounded=0;whiteSpace=wrap;html=1;fillColor=none;" vertex="1" parent="1">
          <mxGeometry x="1319" y="1458" width="335" height="162" as="geometry" />
        </mxCell>
        <object label="&lt;div&gt;&lt;span style=&quot;font-size: 14px&quot;&gt;&lt;b&gt;%name%&lt;/b&gt;&lt;/span&gt;&lt;/div&gt;" placeholders="1" name="Schedule API" technology="" description="Zapisování a načítání lístků ze Schedules" id="pEVB9ASljIQrwYnrfiqq-6">
          <mxCell style="rounded=0;whiteSpace=wrap;html=1;fillColor=#85baf0;fontColor=#000000;strokeColor=#6992BD;resizable=0;rotatable=0;metaEdit=1;allowArrows=0;" vertex="1" parent="1">
            <mxGeometry x="1304" y="1295" width="180" height="120" as="geometry" />
          </mxCell>
        </object>
        <mxCell id="pEVB9ASljIQrwYnrfiqq-7" style="edgeStyle=orthogonalEdgeStyle;rounded=0;orthogonalLoop=1;jettySize=auto;html=1;exitX=0.5;exitY=1;exitDx=0;exitDy=0;entryX=0.538;entryY=0.035;entryDx=0;entryDy=0;entryPerimeter=0;" edge="1" parent="1" source="pEVB9ASljIQrwYnrfiqq-6" target="pEVB9ASljIQrwYnrfiqq-4">
          <mxGeometry relative="1" as="geometry" />
        </mxCell>
        <mxCell id="pEVB9ASljIQrwYnrfiqq-9" value="Schedules" style="text;html=1;align=center;verticalAlign=middle;resizable=0;points=[];autosize=1;strokeColor=none;fillColor=none;" vertex="1" parent="1">
          <mxGeometry x="1319" y="1592" width="74" height="26" as="geometry" />
        </mxCell>
        <mxCell id="pEVB9ASljIQrwYnrfiqq-60" style="edgeStyle=orthogonalEdgeStyle;rounded=0;orthogonalLoop=1;jettySize=auto;html=1;exitX=0.5;exitY=1;exitDx=0;exitDy=0;entryX=0.5;entryY=0;entryDx=0;entryDy=0;" edge="1" parent="1" source="pEVB9ASljIQrwYnrfiqq-11" target="pEVB9ASljIQrwYnrfiqq-43">
          <mxGeometry relative="1" as="geometry" />
        </mxCell>
        <mxCell id="pEVB9ASljIQrwYnrfiqq-11" value="" style="rounded=0;whiteSpace=wrap;html=1;fillColor=none;" vertex="1" parent="1">
          <mxGeometry x="1877" y="752" width="301" height="418" as="geometry" />
        </mxCell>
        <mxCell id="pEVB9ASljIQrwYnrfiqq-12" value="" style="rounded=0;whiteSpace=wrap;html=1;fillColor=none;" vertex="1" parent="1">
          <mxGeometry x="2246" y="790" width="301" height="472" as="geometry" />
        </mxCell>
        <mxCell id="pEVB9ASljIQrwYnrfiqq-33" style="rounded=0;orthogonalLoop=1;jettySize=auto;html=1;exitX=0.5;exitY=0;exitDx=0;exitDy=0;" edge="1" parent="1" target="pEVB9ASljIQrwYnrfiqq-10">
          <mxGeometry relative="1" as="geometry">
            <mxPoint x="2030" y="1059" as="sourcePoint" />
          </mxGeometry>
        </mxCell>
        <mxCell id="pEVB9ASljIQrwYnrfiqq-40" style="rounded=0;orthogonalLoop=1;jettySize=auto;html=1;exitX=0.75;exitY=0;exitDx=0;exitDy=0;entryX=0.75;entryY=1;entryDx=0;entryDy=0;" edge="1" parent="1" target="pEVB9ASljIQrwYnrfiqq-36">
          <mxGeometry relative="1" as="geometry">
            <mxPoint x="2113.75" y="1059" as="sourcePoint" />
          </mxGeometry>
        </mxCell>
        <object label="" placeholders="1" instruction="edit data of the lower shape within the group" id="pEVB9ASljIQrwYnrfiqq-15">
          <mxCell style="group;resizable=0;rotatable=0;allowArrows=0;" vertex="1" connectable="0" parent="1">
            <mxGeometry x="1463" y="-24" width="160" height="170" as="geometry" />
          </mxCell>
        </object>
        <object label="&lt;div style=&quot;color: rgb(255 , 255 , 255) ; white-space: normal&quot;&gt;&lt;span style=&quot;font-size: 14px&quot;&gt;&lt;b&gt;%name%&lt;/b&gt;&lt;/span&gt;&lt;/div&gt;&lt;div style=&quot;color: rgb(255 , 255 , 255) ; white-space: normal&quot;&gt;&lt;font style=&quot;font-size: 8px&quot;&gt;[Person]&lt;/font&gt;&lt;/div&gt;&lt;div style=&quot;color: rgb(255 , 255 , 255) ; white-space: normal ; font-size: 8px&quot;&gt;&lt;span style=&quot;font-size: x-small&quot;&gt;&lt;br&gt;&lt;/span&gt;&lt;/div&gt;&lt;div style=&quot;color: rgb(255 , 255 , 255) ; white-space: normal&quot;&gt;&lt;font size=&quot;1&quot;&gt;%description%&lt;/font&gt;&lt;/div&gt;" name="Učitel" description="" placeholders="1" id="pEVB9ASljIQrwYnrfiqq-16">
          <mxCell style="rounded=1;whiteSpace=wrap;html=1;strokeColor=#00315C;fillColor=#004179;fontColor=#000000;arcSize=31;metaEdit=1;allowArrows=0;" vertex="1" parent="pEVB9ASljIQrwYnrfiqq-15">
            <mxGeometry y="70" width="160" height="100" as="geometry" />
          </mxCell>
        </object>
        <mxCell id="pEVB9ASljIQrwYnrfiqq-17" value="" style="ellipse;whiteSpace=wrap;html=1;aspect=fixed;strokeColor=#00315C;fillColor=#004179;fontColor=#000000;allowArrows=0;" vertex="1" parent="pEVB9ASljIQrwYnrfiqq-15">
          <mxGeometry x="40" width="80" height="80" as="geometry" />
        </mxCell>
        <object label="" placeholders="1" instruction="edit data of the lower shape within the group" id="pEVB9ASljIQrwYnrfiqq-18">
          <mxCell style="group;resizable=0;rotatable=0;allowArrows=0;" vertex="1" connectable="0" parent="1">
            <mxGeometry x="2171" y="58" width="160" height="170" as="geometry" />
          </mxCell>
        </object>
        <object label="&lt;div style=&quot;color: rgb(255 , 255 , 255) ; white-space: normal&quot;&gt;&lt;span style=&quot;font-size: 14px&quot;&gt;&lt;b&gt;%name%&lt;/b&gt;&lt;/span&gt;&lt;/div&gt;&lt;div style=&quot;color: rgb(255 , 255 , 255) ; white-space: normal&quot;&gt;&lt;font style=&quot;font-size: 8px&quot;&gt;[Person]&lt;/font&gt;&lt;/div&gt;&lt;div style=&quot;color: rgb(255 , 255 , 255) ; white-space: normal ; font-size: 8px&quot;&gt;&lt;span style=&quot;font-size: x-small&quot;&gt;&lt;br&gt;&lt;/span&gt;&lt;/div&gt;&lt;div style=&quot;color: rgb(255 , 255 , 255) ; white-space: normal&quot;&gt;&lt;font size=&quot;1&quot;&gt;%description%&lt;/font&gt;&lt;/div&gt;" name="Manager" description="" placeholders="1" id="pEVB9ASljIQrwYnrfiqq-19">
          <mxCell style="rounded=1;whiteSpace=wrap;html=1;strokeColor=#00315C;fillColor=#004179;fontColor=#000000;arcSize=31;metaEdit=1;allowArrows=0;" vertex="1" parent="pEVB9ASljIQrwYnrfiqq-18">
            <mxGeometry y="70" width="160" height="100" as="geometry" />
          </mxCell>
        </object>
        <mxCell id="pEVB9ASljIQrwYnrfiqq-20" value="" style="ellipse;whiteSpace=wrap;html=1;aspect=fixed;strokeColor=#00315C;fillColor=#004179;fontColor=#000000;allowArrows=0;" vertex="1" parent="pEVB9ASljIQrwYnrfiqq-18">
          <mxGeometry x="40" width="80" height="80" as="geometry" />
        </mxCell>
        <object label="" placeholders="1" instruction="edit data of the lower shape within the group" id="pEVB9ASljIQrwYnrfiqq-21">
          <mxCell style="group;resizable=0;rotatable=0;allowArrows=0;" vertex="1" connectable="0" parent="1">
            <mxGeometry x="1175" y="-27" width="160" height="170" as="geometry" />
          </mxCell>
        </object>
        <object label="&lt;div style=&quot;color: rgb(255 , 255 , 255) ; white-space: normal&quot;&gt;&lt;span style=&quot;font-size: 14px&quot;&gt;&lt;b&gt;%name%&lt;/b&gt;&lt;/span&gt;&lt;/div&gt;&lt;div style=&quot;color: rgb(255 , 255 , 255) ; white-space: normal&quot;&gt;&lt;font style=&quot;font-size: 8px&quot;&gt;[Person]&lt;/font&gt;&lt;/div&gt;&lt;div style=&quot;color: rgb(255 , 255 , 255) ; white-space: normal ; font-size: 8px&quot;&gt;&lt;span style=&quot;font-size: x-small&quot;&gt;&lt;br&gt;&lt;/span&gt;&lt;/div&gt;&lt;div style=&quot;color: rgb(255 , 255 , 255) ; white-space: normal&quot;&gt;&lt;font size=&quot;1&quot;&gt;%description%&lt;/font&gt;&lt;/div&gt;" name="Studijní oddělení" description="" placeholders="1" id="pEVB9ASljIQrwYnrfiqq-22">
          <mxCell style="rounded=1;whiteSpace=wrap;html=1;strokeColor=#00315C;fillColor=#004179;fontColor=#000000;arcSize=31;metaEdit=1;allowArrows=0;" vertex="1" parent="pEVB9ASljIQrwYnrfiqq-21">
            <mxGeometry y="70" width="160" height="100" as="geometry" />
          </mxCell>
        </object>
        <mxCell id="pEVB9ASljIQrwYnrfiqq-23" value="" style="ellipse;whiteSpace=wrap;html=1;aspect=fixed;strokeColor=#00315C;fillColor=#004179;fontColor=#000000;allowArrows=0;" vertex="1" parent="pEVB9ASljIQrwYnrfiqq-21">
          <mxGeometry x="40" width="80" height="80" as="geometry" />
        </mxCell>
        <mxCell id="pEVB9ASljIQrwYnrfiqq-24" style="rounded=0;orthogonalLoop=1;jettySize=auto;html=1;exitX=0.5;exitY=1;exitDx=0;exitDy=0;entryX=0.5;entryY=0;entryDx=0;entryDy=0;" edge="1" parent="1" source="pEVB9ASljIQrwYnrfiqq-16" target="pEVB9ASljIQrwYnrfiqq-1">
          <mxGeometry relative="1" as="geometry" />
        </mxCell>
        <mxCell id="pEVB9ASljIQrwYnrfiqq-25" style="rounded=0;orthogonalLoop=1;jettySize=auto;html=1;exitX=0.5;exitY=1;exitDx=0;exitDy=0;entryX=0.25;entryY=0;entryDx=0;entryDy=0;" edge="1" parent="1" source="pEVB9ASljIQrwYnrfiqq-22" target="pEVB9ASljIQrwYnrfiqq-1">
          <mxGeometry relative="1" as="geometry" />
        </mxCell>
        <object label="&lt;div&gt;&lt;span style=&quot;font-size: 14px&quot;&gt;&lt;b&gt;%name%&lt;/b&gt;&lt;/span&gt;&lt;/div&gt;" placeholders="1" name="Zobrazení pro manažera" technology="" description="" id="pEVB9ASljIQrwYnrfiqq-26">
          <mxCell style="rounded=0;whiteSpace=wrap;html=1;fillColor=#85baf0;fontColor=#000000;strokeColor=#6992BD;resizable=0;rotatable=0;metaEdit=1;allowArrows=0;" vertex="1" parent="1">
            <mxGeometry x="2322" y="301" width="180" height="120" as="geometry" />
          </mxCell>
        </object>
        <mxCell id="pEVB9ASljIQrwYnrfiqq-28" style="rounded=0;orthogonalLoop=1;jettySize=auto;html=1;exitX=0;exitY=0.5;exitDx=0;exitDy=0;entryX=0.5;entryY=0;entryDx=0;entryDy=0;" edge="1" parent="1" source="pEVB9ASljIQrwYnrfiqq-19" target="pEVB9ASljIQrwYnrfiqq-36">
          <mxGeometry relative="1" as="geometry" />
        </mxCell>
        <mxCell id="pEVB9ASljIQrwYnrfiqq-29" value="Zobrazení" style="text;html=1;align=center;verticalAlign=middle;resizable=0;points=[];autosize=1;strokeColor=none;fillColor=none;" vertex="1" parent="1">
          <mxGeometry x="1146" y="622" width="72" height="26" as="geometry" />
        </mxCell>
        <mxCell id="pEVB9ASljIQrwYnrfiqq-30" value="Navigace" style="text;html=1;align=center;verticalAlign=middle;resizable=0;points=[];autosize=1;strokeColor=none;fillColor=none;" vertex="1" parent="1">
          <mxGeometry x="1330" y="427" width="68" height="26" as="geometry" />
        </mxCell>
        <mxCell id="pEVB9ASljIQrwYnrfiqq-31" value="Data handling" style="text;html=1;align=center;verticalAlign=middle;resizable=0;points=[];autosize=1;strokeColor=none;fillColor=none;" vertex="1" parent="1">
          <mxGeometry x="1120" y="1398" width="92" height="26" as="geometry" />
        </mxCell>
        <mxCell id="pEVB9ASljIQrwYnrfiqq-34" value="Email service" style="text;html=1;align=center;verticalAlign=middle;resizable=0;points=[];autosize=1;strokeColor=none;fillColor=none;" vertex="1" parent="1">
          <mxGeometry x="2246" y="1231" width="89" height="26" as="geometry" />
        </mxCell>
        <mxCell id="pEVB9ASljIQrwYnrfiqq-35" value="Text" style="text;html=1;align=center;verticalAlign=middle;resizable=0;points=[];autosize=1;strokeColor=none;fillColor=none;" vertex="1" parent="1">
          <mxGeometry x="1865.5" y="1193" width="40" height="26" as="geometry" />
        </mxCell>
        <mxCell id="pEVB9ASljIQrwYnrfiqq-39" style="rounded=0;orthogonalLoop=1;jettySize=auto;html=1;exitX=0.5;exitY=1;exitDx=0;exitDy=0;entryX=0.5;entryY=0;entryDx=0;entryDy=0;" edge="1" parent="1" source="pEVB9ASljIQrwYnrfiqq-36" target="pEVB9ASljIQrwYnrfiqq-10">
          <mxGeometry relative="1" as="geometry" />
        </mxCell>
        <mxCell id="pEVB9ASljIQrwYnrfiqq-36" value="" style="rounded=0;whiteSpace=wrap;html=1;fillColor=none;" vertex="1" parent="1">
          <mxGeometry x="2246" y="277" width="325" height="168" as="geometry" />
        </mxCell>
        <mxCell id="pEVB9ASljIQrwYnrfiqq-37" style="edgeStyle=orthogonalEdgeStyle;rounded=0;orthogonalLoop=1;jettySize=auto;html=1;exitX=0.5;exitY=1;exitDx=0;exitDy=0;" edge="1" parent="1" source="pEVB9ASljIQrwYnrfiqq-26" target="pEVB9ASljIQrwYnrfiqq-26">
          <mxGeometry relative="1" as="geometry" />
        </mxCell>
        <mxCell id="pEVB9ASljIQrwYnrfiqq-38" value="Navigace pro manažera" style="text;html=1;align=center;verticalAlign=middle;resizable=0;points=[];autosize=1;strokeColor=none;fillColor=none;" vertex="1" parent="1">
          <mxGeometry x="2246" y="419" width="145" height="26" as="geometry" />
        </mxCell>
        <object label="&lt;div style=&quot;color: rgb(255 , 255 , 255) ; white-space: normal&quot;&gt;&lt;span style=&quot;font-size: 14px&quot;&gt;&lt;b&gt;%name%&lt;/b&gt;&lt;/span&gt;&lt;/div&gt;&lt;div style=&quot;color: rgb(255 , 255 , 255) ; white-space: normal ; font-size: 8px&quot;&gt;&lt;font style=&quot;line-height: 9.6px&quot;&gt;&lt;br&gt;&lt;/font&gt;&lt;/div&gt;&lt;div style=&quot;color: rgb(255 , 255 , 255) ; white-space: normal&quot;&gt;%description%&lt;/div&gt;" name="Historie změn" description="[Database]" placeholders="1" id="pEVB9ASljIQrwYnrfiqq-43">
          <mxCell style="shape=cylinder;whiteSpace=wrap;html=1;boundedLbl=1;backgroundOutline=1;strokeColor=#2F6FA6;strokeWidth=1;fillColor=#3B8CD2;fontSize=9;fontColor=#000000;align=center;resizable=0;rotatable=0;metaEdit=1;allowArrows=0;" vertex="1" parent="1">
            <mxGeometry x="1969.5" y="1579.8600000000001" width="180" height="120" as="geometry" />
          </mxCell>
        </object>
        <object label="&lt;div&gt;&lt;span style=&quot;font-size: 14px&quot;&gt;&lt;b&gt;%name%&lt;/b&gt;&lt;/span&gt;&lt;/div&gt;" placeholders="1" name="Přihlašovací systém" technology="" description="Zapisování a načítání lístků ze Schedules" id="pEVB9ASljIQrwYnrfiqq-48">
          <mxCell style="rounded=0;whiteSpace=wrap;html=1;fillColor=#85baf0;fontColor=#000000;strokeColor=#6992BD;resizable=0;rotatable=0;metaEdit=1;allowArrows=0;" vertex="1" parent="1">
            <mxGeometry x="2436" y="1579.8600000000001" width="180" height="120" as="geometry" />
          </mxCell>
        </object>
        <mxCell id="pEVB9ASljIQrwYnrfiqq-54" style="edgeStyle=orthogonalEdgeStyle;rounded=0;orthogonalLoop=1;jettySize=auto;html=1;exitX=0.5;exitY=0;exitDx=0;exitDy=0;entryX=1;entryY=0.5;entryDx=0;entryDy=0;" edge="1" parent="1" source="pEVB9ASljIQrwYnrfiqq-49" target="pEVB9ASljIQrwYnrfiqq-11">
          <mxGeometry relative="1" as="geometry">
            <Array as="points">
              <mxPoint x="2512" y="1493" />
              <mxPoint x="2222" y="1493" />
              <mxPoint x="2222" y="865" />
            </Array>
          </mxGeometry>
        </mxCell>
        <mxCell id="pEVB9ASljIQrwYnrfiqq-49" value="" style="rounded=0;whiteSpace=wrap;html=1;fillColor=none;" vertex="1" parent="1">
          <mxGeometry x="2366" y="1562" width="335" height="162" as="geometry" />
        </mxCell>
        <object label="&lt;div&gt;&lt;span style=&quot;font-size: 14px&quot;&gt;&lt;b&gt;%name%&lt;/b&gt;&lt;/span&gt;&lt;/div&gt;" placeholders="1" name="Zápisy API" technology="" description="Zapisování a načítání lístků ze Schedules" id="pEVB9ASljIQrwYnrfiqq-55">
          <mxCell style="rounded=0;whiteSpace=wrap;html=1;fillColor=#85baf0;fontColor=#000000;strokeColor=#6992BD;resizable=0;rotatable=0;metaEdit=1;allowArrows=0;" vertex="1" parent="1">
            <mxGeometry x="2338" y="1804" width="180" height="120" as="geometry" />
          </mxCell>
        </object>
        <mxCell id="pEVB9ASljIQrwYnrfiqq-58" style="edgeStyle=orthogonalEdgeStyle;rounded=0;orthogonalLoop=1;jettySize=auto;html=1;exitX=1;exitY=0.5;exitDx=0;exitDy=0;" edge="1" parent="1" source="pEVB9ASljIQrwYnrfiqq-57">
          <mxGeometry relative="1" as="geometry">
            <mxPoint x="3098.39990234375" y="1869.5999755859375" as="targetPoint" />
          </mxGeometry>
        </mxCell>
        <mxCell id="pEVB9ASljIQrwYnrfiqq-57" value="" style="rounded=0;whiteSpace=wrap;html=1;fillColor=none;" vertex="1" parent="1">
          <mxGeometry x="2285" y="1776" width="335" height="162" as="geometry" />
        </mxCell>
        <mxCell id="pEVB9ASljIQrwYnrfiqq-59" style="edgeStyle=orthogonalEdgeStyle;rounded=0;orthogonalLoop=1;jettySize=auto;html=1;exitX=0.75;exitY=1;exitDx=0;exitDy=0;entryX=0.85;entryY=0.05;entryDx=0;entryDy=0;entryPerimeter=0;" edge="1" parent="1" source="pEVB9ASljIQrwYnrfiqq-11" target="6n6V5YqHm-eZs2ubv0Nd-1">
          <mxGeometry relative="1" as="geometry" />
        </mxCell>
      </root>
    </mxGraphModel>
  </diagram>
</mxfile>
